<svg width="16" height="15" viewBox="0 0 16 15" fill="none" xmlns="http://www.w3.org/2000/svg">
<path d="M9.40963 0.423543C10.3528 1.08475 10.8604 2.10678 11.0899 3.21203C11.1143 3.39354 11.1137 3.57071 11.1118 3.75357C11.1116 3.7889 11.1114 3.82423 11.1112 3.86063C11.1107 3.9471 11.11 4.03357 11.1092 4.12004C11.1631 4.11947 11.2171 4.1189 11.2727 4.11832C11.7822 4.11315 12.2917 4.10933 12.8012 4.10683C13.0631 4.1055 13.325 4.1037 13.5869 4.10081C13.8398 4.09803 14.0927 4.09651 14.3456 4.09585C14.4419 4.09538 14.5382 4.09446 14.6346 4.09308C14.7699 4.09122 14.905 4.09098 15.0403 4.0911C15.0997 4.08972 15.0997 4.08972 15.1602 4.08832C15.455 4.09108 15.6452 4.18226 15.8679 4.37497C16.025 4.5859 16.0066 4.78109 15.9879 5.03171C15.9855 5.07083 15.983 5.10994 15.9805 5.15024C15.9513 5.59652 15.9063 6.04135 15.8599 6.48611C15.8505 6.57807 15.8411 6.67003 15.8318 6.76199C15.7862 7.20837 15.7396 7.65464 15.6931 8.10093C15.6717 8.30597 15.6504 8.51102 15.6291 8.71606C15.6183 8.81914 15.6076 8.92222 15.5968 9.0253C15.5369 9.59937 15.4787 10.1735 15.4251 10.7482C15.4203 10.7997 15.4154 10.8512 15.4105 10.9043C15.3877 11.1491 15.3652 11.394 15.3431 11.6389C15.1641 13.6021 15.1641 13.6021 14.4216 14.2925C13.8579 14.7473 13.229 14.9685 12.5097 14.966C12.469 14.9661 12.4282 14.9663 12.3863 14.9665C12.2509 14.9671 12.1155 14.967 11.9801 14.9669C11.8826 14.9672 11.7851 14.9675 11.6875 14.9678C11.4234 14.9685 11.1592 14.9687 10.8951 14.9688C10.7298 14.9689 10.5646 14.969 10.3994 14.9693C9.85216 14.97 9.30494 14.9704 8.75771 14.9703C8.71355 14.9703 8.71355 14.9703 8.6685 14.9703C8.63903 14.9703 8.60955 14.9703 8.57918 14.9703C8.10165 14.9703 7.62412 14.9711 7.14659 14.9723C6.65516 14.9735 6.16374 14.9741 5.67231 14.974C5.39685 14.974 5.1214 14.9743 4.84594 14.9752C4.58679 14.976 4.32764 14.976 4.06849 14.9754C3.97369 14.9753 3.87889 14.9755 3.78409 14.976C2.85353 14.9807 2.17193 14.7987 1.46844 14.1588C1.2958 13.9814 1.18309 13.779 1.07128 13.5604C1.05728 13.5333 1.04327 13.5061 1.02885 13.4781C0.767286 12.9419 0.736303 12.3689 0.680914 11.7839C0.672735 11.7005 0.66452 11.617 0.656267 11.5336C0.633233 11.2996 0.61069 11.0656 0.588217 10.8316C0.49958 9.90931 0.409509 8.98718 0.314572 8.0655C0.301869 7.94215 0.289198 7.81879 0.276537 7.69543C0.268097 7.61323 0.259657 7.53103 0.251216 7.44882C0.247043 7.40817 0.242869 7.36753 0.23857 7.32564C0.217075 7.11647 0.195484 6.9073 0.173729 6.69815C0.152096 6.4901 0.130716 6.28202 0.109503 6.07392C0.101532 5.99618 0.0934717 5.91845 0.0853114 5.84073C-0.0383086 4.66229 -0.0383089 4.66229 0.156613 4.36302C0.406486 4.12138 0.631974 4.09564 0.965045 4.10074C1.00777 4.10072 1.0505 4.10069 1.09452 4.10067C1.235 4.10079 1.37544 4.10211 1.51591 4.10344C1.6136 4.10376 1.7113 4.104 1.80899 4.10417C2.06555 4.10482 2.3221 4.10648 2.57866 4.10837C2.84068 4.11011 3.10271 4.11088 3.36474 4.11174C3.87845 4.11356 4.39215 4.11646 4.90586 4.12004C4.90569 4.06329 4.90569 4.06329 4.90552 4.00539C4.90543 3.95571 4.90535 3.90603 4.90526 3.85485C4.90509 3.78101 4.90509 3.78101 4.90492 3.70568C4.91233 2.61691 5.38088 1.60202 6.1206 0.816561C7.05 -0.0787255 8.29763 -0.279878 9.40963 0.423543ZM0.529549 4.75736C0.509121 5.02736 0.548771 5.29171 0.582493 5.5595C0.642371 6.05669 0.693079 6.55442 0.740829 7.0529C0.744433 7.09046 0.748037 7.12801 0.75175 7.16671C0.774079 7.39964 0.796257 7.63259 0.818381 7.86554C0.848163 8.17891 0.878127 8.49226 0.908104 8.8056C0.918357 8.91297 0.928553 9.02034 0.938739 9.12771C0.977796 9.53801 1.01951 9.94797 1.06307 10.3578C1.08452 10.5598 1.10475 10.7619 1.12439 10.964C1.13146 11.0359 1.13854 11.1078 1.14563 11.1798C1.1563 11.2883 1.16694 11.3969 1.1775 11.5055C1.21272 11.8673 1.24856 12.2291 1.29401 12.5898C1.30008 12.6383 1.30615 12.6868 1.31241 12.7368C1.40515 13.2528 1.69873 13.7176 2.11224 14.0358C2.4315 14.2526 2.81619 14.4492 3.21011 14.4505C3.24454 14.4508 3.27897 14.451 3.31444 14.4512C3.35203 14.4512 3.38962 14.4512 3.42835 14.4513C3.46847 14.4515 3.50859 14.4516 3.54993 14.4518C3.68473 14.4524 3.81952 14.4527 3.95432 14.4529C4.05084 14.4533 4.14737 14.4536 4.24389 14.454C4.56131 14.4551 4.87872 14.4557 5.19614 14.4563C5.3055 14.4566 5.41486 14.4568 5.52423 14.457C5.97936 14.4579 6.43449 14.4588 6.88963 14.4592C7.00769 14.4593 7.12576 14.4595 7.24383 14.4596C7.27317 14.4596 7.30252 14.4597 7.33275 14.4597C7.80722 14.4602 8.28169 14.4616 8.75616 14.4634C9.24402 14.4652 9.73188 14.4662 10.2197 14.4664C10.4934 14.4666 10.767 14.4671 11.0406 14.4685C11.2983 14.4698 11.5561 14.47 11.8138 14.4695C11.9081 14.4695 12.0023 14.4699 12.0965 14.4706C12.8664 14.4764 13.5206 14.3896 14.1252 13.8612C14.6168 13.3522 14.7063 12.7107 14.7818 12.0388C14.7872 11.9911 14.7926 11.9433 14.7982 11.8942C14.8422 11.4991 14.879 11.1035 14.9142 10.7075C15.0413 9.27689 15.1867 7.84797 15.3409 6.42C15.3777 6.07869 15.414 5.73734 15.4491 5.39585C15.4546 5.34355 15.4546 5.34355 15.4603 5.29019C15.516 4.97335 15.516 4.97335 15.4321 4.68762C15.3409 4.61655 15.296 4.61414 15.1814 4.61457C15.1455 4.61439 15.1095 4.61422 15.0725 4.61404C15.0332 4.6145 14.994 4.61496 14.9535 4.61543C14.9121 4.61541 14.8706 4.61539 14.8279 4.61537C14.6906 4.61546 14.5534 4.61645 14.4161 4.61745C14.3211 4.61769 14.226 4.61787 14.1309 4.618C13.8805 4.61848 13.6301 4.61974 13.3797 4.62115C13.1242 4.62245 12.8687 4.62303 12.6133 4.62367C12.1119 4.62504 11.6105 4.62722 11.1092 4.6299C11.1085 4.67943 11.1079 4.72896 11.1073 4.77999C11.1048 4.96363 11.1015 5.14724 11.098 5.33086C11.0966 5.41036 11.0954 5.48986 11.0944 5.56936C11.093 5.6836 11.0908 5.7978 11.0884 5.91202C11.0882 5.94761 11.0879 5.9832 11.0876 6.01986C11.0813 6.2685 11.0813 6.2685 11.0086 6.36026C10.9392 6.41441 10.9392 6.41441 10.8303 6.42769C10.7268 6.41441 10.7268 6.41441 10.6418 6.32944C10.6278 5.76859 10.6138 5.20774 10.5993 4.6299C8.88872 4.6299 7.17814 4.6299 5.41572 4.6299C5.4017 5.19075 5.38768 5.75159 5.37323 6.32944C5.28825 6.41441 5.28825 6.41441 5.18469 6.42769C5.05498 6.41187 5.02797 6.38746 4.94835 6.28695C4.93426 6.15925 4.92758 6.0399 4.9266 5.91202C4.92584 5.87542 4.92508 5.83882 4.92429 5.80111C4.92199 5.68423 4.92055 5.56735 4.91914 5.45046C4.91773 5.3712 4.91626 5.29195 4.91474 5.2127C4.91113 5.01844 4.90829 4.82418 4.90586 4.6299C4.35408 4.62695 3.8023 4.62468 3.25052 4.62329C2.99432 4.62263 2.73813 4.62172 2.48193 4.62028C2.23482 4.6189 1.98771 4.61814 1.74059 4.6178C1.64618 4.61757 1.55177 4.61711 1.45736 4.61642C1.3254 4.6155 1.19347 4.61537 1.06152 4.61543C1.02224 4.61497 0.982972 4.61451 0.94251 4.61404C0.888622 4.6143 0.888622 4.6143 0.833645 4.61457C0.80243 4.61445 0.771215 4.61434 0.739054 4.61421C0.631638 4.63475 0.594135 4.67017 0.529549 4.75736Z" fill="black"/>
<path d="M8.90708 0.723599C9.108 0.826197 9.28155 0.957228 9.45242 1.10332C9.4792 1.12539 9.50598 1.14746 9.53358 1.1702C10.1691 1.7449 10.5516 2.72737 10.5996 3.56765C10.5996 3.74992 10.5996 3.9322 10.5996 4.12C8.88902 4.12 7.17844 4.12 5.41602 4.12C5.41602 2.96955 5.69793 2.0092 6.49416 1.15377C6.80793 0.857352 7.17496 0.679147 7.58293 0.550969C8.03678 0.399684 8.49059 0.529621 8.90708 0.723599Z" fill="#FDFDFD"/>
</svg>
