<svg width="24" height="24" viewBox="0 0 24 24" fill="none" xmlns="http://www.w3.org/2000/svg">
<path d="M13.777 23.6522V15.3622H16.547L17.083 11.8952H13.797C13.7844 11.863 13.7753 11.8294 13.77 11.7952C13.77 11.0432 13.759 10.2952 13.787 9.53923C13.7752 9.32038 13.8085 9.10145 13.8848 8.896C13.9611 8.69055 14.0788 8.50296 14.2306 8.34488C14.3824 8.1868 14.5651 8.06159 14.7673 7.97702C14.9695 7.89245 15.1869 7.85031 15.406 7.85323C15.991 7.80923 16.582 7.84524 17.19 7.84524V4.85723C16.806 4.80723 16.418 4.74624 16.027 4.70924C15.105 4.57553 14.1674 4.59309 13.251 4.76124C12.4478 4.91387 11.7133 5.31627 11.1523 5.91102C10.5913 6.50577 10.2325 7.26249 10.127 8.07323C10.0575 8.49327 10.024 8.91849 10.027 9.34424C10.012 10.1812 10.027 11.0182 10.027 11.8842H7.01802V15.3502H10.018V23.6502C7.06302 23.1769 4.39483 21.6076 2.54515 19.255C0.695475 16.9024 -0.199873 13.9393 0.037522 10.956C0.274917 7.97279 1.62763 5.18852 3.8261 3.15805C6.02456 1.12758 8.90734 0 11.9 0C14.8927 0 17.7755 1.12758 19.974 3.15805C22.1724 5.18852 23.5251 7.97279 23.7625 10.956C23.9999 13.9393 23.1046 16.9024 21.2549 19.255C19.4052 21.6076 16.737 23.1769 13.782 23.6502L13.777 23.6522Z" fill="black"/>
</svg>
