<svg width="23" height="23" viewBox="0 0 23 23" fill="none" xmlns="http://www.w3.org/2000/svg">
<path d="M22.82 5.948C22.731 4.34409 22.0242 2.83701 20.8478 1.74309C19.6715 0.649162 18.1171 0.0534516 16.511 0.0810013C16.184 0.0650013 15.859 0.028 15.532 0H7.422C6.931 0.044 6.439 0.0750032 5.95 0.133003C4.34608 0.221966 2.83894 0.928593 1.74472 2.10466C0.6505 3.28073 0.0542361 4.83484 0.0810013 6.44099C0.0650013 6.76799 0.028 7.095 0 7.422V15.532C0.044 16.023 0.0760032 16.516 0.133003 17.006C0.222226 18.6098 0.929139 20.1168 2.10542 21.2106C3.28171 22.3045 4.83593 22.9003 6.442 22.873C6.769 22.889 7.095 22.926 7.421 22.954H15.531C16.022 22.91 16.514 22.879 17.003 22.821C18.6068 22.7323 20.114 22.0259 21.2082 20.85C22.3025 19.6741 22.8988 18.1201 22.872 16.514C22.888 16.186 22.925 15.86 22.953 15.533V7.423C22.91 6.929 22.878 6.436 22.82 5.948ZM16.708 20.732C13.226 20.891 9.724 20.896 6.243 20.732C3.597 20.606 2.251 19.011 2.159 16.311C2.078 13.917 2.079 11.521 2.082 9.125C2.06834 8.04209 2.12143 6.95937 2.241 5.883C2.533 3.555 4.083 2.24 6.663 2.158C9.057 2.081 11.454 2.076 13.849 2.086C14.9951 2.06581 16.141 2.13266 17.277 2.286C18.1986 2.37694 19.0557 2.79972 19.6887 3.47562C20.3217 4.15151 20.6876 5.03446 20.718 5.96001C20.861 7.59401 20.836 9.24299 20.884 10.885C20.89 11.085 20.884 11.293 20.884 11.497V13.824C20.868 14.77 20.842 15.714 20.758 16.654C20.53 19.234 19.275 20.613 16.708 20.73V20.732Z" fill="black"/>
<path d="M11.491 5.58205C10.3247 5.57928 9.18373 5.92268 8.21268 6.56874C7.24164 7.21481 6.48414 8.13449 6.03611 9.21134C5.58808 10.2882 5.46968 11.4738 5.69588 12.618C5.92209 13.7621 6.48272 14.8135 7.30681 15.6388C8.13091 16.4642 9.18138 17.0264 10.3252 17.2544C11.4691 17.4824 12.6548 17.3658 13.7324 16.9194C14.8099 16.473 15.7307 15.7169 16.3783 14.7468C17.0258 13.7768 17.371 12.6364 17.37 11.47C17.3716 10.6971 17.2206 9.93152 16.9259 9.21703C16.6311 8.50254 16.1982 7.85322 15.6521 7.30628C15.106 6.75933 14.4574 6.32549 13.7433 6.02962C13.0293 5.73375 12.2639 5.58165 11.491 5.58205ZM11.462 15.2991C10.7053 15.2961 9.9665 15.0687 9.33912 14.6456C8.71173 14.2225 8.22396 13.6229 7.93755 12.9225C7.65114 12.2221 7.57897 11.4525 7.73017 10.711C7.88136 9.96958 8.24913 9.28967 8.78692 8.75734C9.32471 8.22502 10.0083 7.86421 10.7513 7.7206C11.4942 7.57698 12.2631 7.657 12.9605 7.95055C13.6579 8.24409 14.2526 8.73796 14.6692 9.36963C15.0859 10.0013 15.3057 10.7424 15.301 11.4991C15.2907 12.5102 14.8816 13.4763 14.1627 14.1874C13.4438 14.8985 12.4731 15.2969 11.462 15.2961V15.2991Z" fill="black"/>
<path d="M17.6145 3.96905C17.3421 3.96652 17.0751 4.04471 16.8471 4.19375C16.6191 4.3428 16.4404 4.55603 16.3334 4.80655C16.2265 5.05706 16.1961 5.33364 16.2461 5.60139C16.2962 5.86915 16.4244 6.11607 16.6147 6.31103C16.8049 6.506 17.0486 6.64026 17.315 6.69688C17.5815 6.7535 17.8587 6.72994 18.1118 6.62918C18.3648 6.52842 18.5824 6.35497 18.737 6.13071C18.8916 5.90644 18.9763 5.64142 18.9805 5.36906C18.9839 5.18712 18.9512 5.0063 18.8842 4.83711C18.8172 4.66792 18.7173 4.51373 18.5902 4.38348C18.4631 4.25324 18.3114 4.14953 18.1439 4.07838C17.9764 4.00724 17.7965 3.97008 17.6145 3.96905Z" fill="black"/>
</svg>
