<svg width="98" height="75" viewBox="0 0 98 75" fill="none" xmlns="http://www.w3.org/2000/svg">
<path d="M89.2918 66.8848L73.6915 58.2616L61.0352 55.5736L49.6349 56.3576L35.6806 59.1656L43.7318 67.7988L57.2661 72.2449L93.0229 74.066L89.2918 66.8848Z" fill="#00864D"/>
<path d="M76.9936 53.5235L57.0252 52.5645L44.3219 50.6234L34.5987 47.4304L24.4204 37.1701L32.0536 34.6781L48.513 34.9081L62.2363 37.7941L71.7665 44.4993L76.9936 53.5235Z" fill="#00864D"/>
<path d="M61.9545 30.214L48.6742 30.7591L29.5998 32.2591L14.0145 31.2761L4.11424 22.3339L2.44621 13.1237L14.0145 19.8118L26.6538 22.7009L35.946 21.1798L45.1852 21.5289L55.8864 24.5749L61.9545 30.214Z" fill="#00864D"/>
<path d="M41.7268 13.5836L29.6006 5.11943L17.5513 3.6344L6.20504 0.377321L0.00490431 1.78335L8.6571 5.11943L23.8394 14.3866L43.7319 16.6197L41.7268 13.5836Z" fill="#00864D"/>
<path d="M57.0249 15.8456L52.6888 7.68839L46.7686 1.11024L43.2065 0.000212868L44.7496 6.70036L47.8967 19.5907L55.8868 24.5748L57.0249 15.8456Z" fill="#00864D"/>
<mask id="mask0_937_129" style="mask-type:luminance" maskUnits="userSpaceOnUse" x="-1" y="0" width="99" height="75">
<path d="M0 74.066L97.6772 74.066L97.6772 0.000305183L0 0.000305183L0 74.066Z" fill="white"/>
</mask>
<g mask="url(#mask0_937_129)">
<path d="M62.6059 2.88145L68.7481 3.34746L75.3362 14.9817L76.9253 28.853L74.1092 38.6483L66.125 30.7611C66.125 30.7611 63.2459 16.8608 62.9339 16.2607C62.6219 15.6607 62.6069 2.87745 62.6069 2.87745" fill="#00864D"/>
<path d="M88.597 19.0667L94.0651 21.1978L97.6772 39.6612L96.3212 62.2227L93.9201 62.6507L84.8199 46.5133L83.3419 29.2869L88.597 19.0667Z" fill="#00864D"/>
<path d="M85.7065 69.6258C82.1884 69.0538 78.6933 68.3828 75.2063 67.6817C71.7192 66.9807 68.2361 66.2337 64.764 65.4577L62.164 64.8687L59.5639 64.2687L58.9199 64.1187C58.7086 64.0713 58.4962 64.0283 58.2829 63.9897C57.8569 63.9117 57.4279 63.8457 56.9969 63.7977C56.7815 63.773 56.5655 63.7523 56.3488 63.7357C56.2408 63.7267 56.1328 63.7207 56.0238 63.7137L55.6948 63.6967L54.3608 63.6257C50.8057 63.4257 47.2556 63.2036 43.7056 62.8766C47.2686 62.7766 50.8277 62.7876 54.3868 62.8256L55.7208 62.8426H55.8878H56.0588C56.1728 62.8426 56.2868 62.8496 56.3998 62.8546C56.6272 62.8646 56.8545 62.879 57.0819 62.8976C57.5359 62.9343 57.9885 62.989 58.4399 63.0616C58.6652 63.0983 58.8896 63.1386 59.1129 63.1826L59.7719 63.3256L62.38 63.8897L64.986 64.4677C68.4574 65.2457 71.9212 66.0587 75.3773 66.9067C78.8323 67.7597 82.2804 68.6438 85.7065 69.6258Z" fill="#CDE2A8"/>
<path d="M93.3667 56.3836C92.7086 53.7975 92.1506 51.1935 91.6236 48.5834C91.0966 45.9734 90.6146 43.3583 90.1636 40.7363L89.8316 38.7692C89.7786 38.4452 89.7226 38.1032 89.6806 37.7692C89.6386 37.4352 89.6026 37.0912 89.5806 36.7502C89.5341 36.0698 89.5267 35.3873 89.5586 34.7061C89.5666 34.5361 89.5776 34.3651 89.5896 34.1971L89.6256 33.6971L89.7036 32.7021C89.9176 30.049 90.1636 27.402 90.5106 24.7519C90.5856 27.42 90.5586 30.082 90.5006 32.7431L90.4766 33.7431L90.4616 34.2431C90.4616 34.4071 90.4536 34.5681 90.4526 34.7311C90.4526 35.3801 90.4766 36.0311 90.5396 36.6742C90.5716 36.9962 90.6076 37.3182 90.6546 37.6392C90.7016 37.9602 90.7546 38.2742 90.8176 38.6052L91.1666 40.5662C91.614 43.1883 92.0273 45.8164 92.4066 48.4504C92.7796 51.0835 93.1227 53.7265 93.3667 56.3836Z" fill="#CDE2A8"/>
<path d="M73.06 34.804C72.523 32.26 72.086 29.7039 71.68 27.1418C71.58 26.5018 71.48 25.8608 71.386 25.2198C71.292 24.5788 71.198 23.9368 71.106 23.2958C71.014 22.6547 70.929 22.0117 70.84 21.3697L70.713 20.4057C70.671 20.0847 70.629 19.7607 70.584 19.4517C70.399 18.2027 70.0936 16.9747 69.6719 15.7846C69.4629 15.1846 69.2189 14.6046 68.9549 14.0295L68.5439 13.1495L68.1369 12.2665C67.0599 9.90945 66.0059 7.5384 65.0458 5.12135C66.3849 7.3504 67.6319 9.62145 68.8509 11.9145L69.3059 12.7735L69.7559 13.6365C70.0609 14.2267 70.3337 14.8329 70.573 15.4526C70.8105 16.0747 71.0151 16.709 71.186 17.3526C71.3528 17.997 71.4863 18.6496 71.586 19.3077C71.633 19.6407 71.671 19.9597 71.711 20.2817L71.83 21.2467C71.905 21.8907 71.985 22.5337 72.056 23.1778C72.127 23.8218 72.203 24.4618 72.27 25.1038C72.337 25.7458 72.404 26.3958 72.468 27.0408C72.719 29.6219 72.94 32.204 73.06 34.804Z" fill="#CDE2A8"/>
<path d="M70.4116 48.7324C67.0325 48.8324 63.6574 48.8324 60.2824 48.8024L59.0173 48.7884C58.9113 48.7884 58.8073 48.7884 58.7003 48.7884L58.3763 48.7784H58.2143L58.0523 48.7684L57.7283 48.7494C56.8651 48.6868 56.0075 48.5621 55.1622 48.3764C55.0562 48.3554 54.9512 48.3294 54.8462 48.3044L54.5302 48.2204C54.3212 48.1624 54.1122 48.1084 53.9052 48.0454C53.6982 47.9824 53.4902 47.9214 53.2862 47.8454L52.9782 47.7454L52.6782 47.6324C52.2712 47.4824 51.8782 47.3104 51.4782 47.1324C51.2831 47.0384 51.0851 46.9494 50.8931 46.8504C50.7011 46.7514 50.5051 46.6504 50.3211 46.5504L48.0901 45.3573L45.861 44.1533C45.121 43.7483 44.38 43.3453 43.643 42.9353L42.536 42.3223L41.9839 42.0133C41.8019 41.9133 41.6229 41.8132 41.4379 41.7212C39.9634 40.9592 38.3959 40.3927 36.7748 40.0362C36.3688 39.9462 35.9588 39.8682 35.5458 39.8052C35.3388 39.7732 35.1328 39.7472 34.9238 39.7212C34.7148 39.6952 34.5048 39.6692 34.2958 39.6422L33.0397 39.4802C32.6217 39.4212 32.2027 39.3672 31.7847 39.3052C32.2077 39.3052 32.6297 39.3202 33.0517 39.3272L34.3178 39.3622C34.5288 39.3682 34.7398 39.3732 34.9508 39.3822C35.1618 39.3912 35.3758 39.4002 35.5888 39.4152C36.0148 39.4442 36.4398 39.4892 36.8638 39.5462C38.5672 39.7913 40.226 40.2828 41.7879 41.0052C41.9879 41.0922 42.1759 41.1922 42.3709 41.2852L42.936 41.5702L44.063 42.1453C44.815 42.5273 45.563 42.9163 46.313 43.3033L48.5561 44.4733L50.7931 45.6573C50.9811 45.7573 51.1621 45.8513 51.3441 45.9453C51.5262 46.0393 51.7132 46.1253 51.8972 46.2153C52.0812 46.3054 52.2702 46.3854 52.4602 46.4644C52.6502 46.5434 52.8382 46.6234 53.0302 46.6954C53.7953 46.9939 54.5798 47.2401 55.3782 47.4324C56.1792 47.6251 56.992 47.765 57.8113 47.8514L58.1113 47.8794L58.2673 47.8944L58.4213 47.9034L58.7293 47.9204L59.0443 47.9404L60.3114 48.0084C63.6774 48.1954 67.0465 48.4134 70.4116 48.7324Z" fill="#CDE2A8"/>
<path d="M52.8842 27.9869C48.9041 28.0269 44.9291 27.9609 40.955 27.8699C39.9616 27.8452 38.9683 27.8186 37.9749 27.7899C36.9839 27.7629 35.9839 27.7289 34.9958 27.6989L32.0168 27.5909C31.7668 27.5819 31.5248 27.5729 31.2657 27.5599C31.0067 27.5469 30.7557 27.5279 30.5017 27.5039C30.2477 27.4799 29.9937 27.4509 29.7407 27.4159L29.0017 27.3159L26.0506 26.8939L23.1016 26.4589C22.1195 26.3099 21.1365 26.1639 20.1545 26.0099L19.7865 25.9529C19.6635 25.9339 19.5365 25.9089 19.4115 25.8879C19.1615 25.8419 18.9115 25.8049 18.6625 25.7429L18.2905 25.6579L18.1045 25.6149L17.9204 25.5648L17.5534 25.4648C17.4314 25.4298 17.3074 25.4008 17.1874 25.3588C15.2484 24.7621 13.4231 23.8447 11.7873 22.6448C10.9781 22.0486 10.2189 21.3874 9.51726 20.6677C9.34625 20.4837 9.17325 20.3037 9.00625 20.1187L8.51823 19.5497C8.20523 19.1627 7.89122 18.7777 7.58122 18.3877C7.93422 18.7377 8.28123 19.0947 8.63224 19.4467L9.16225 19.9667C9.34325 20.1357 9.52926 20.2987 9.71126 20.4667C10.4512 21.1158 11.2395 21.7075 12.0693 22.2368C12.8918 22.7672 13.7548 23.232 14.6504 23.6268C14.8764 23.7208 15.0994 23.8188 15.3254 23.9088L16.0094 24.1668L16.7034 24.3948L17.4034 24.5948C17.5194 24.6308 17.6394 24.6538 17.7574 24.6838L18.1115 24.7678L18.2945 24.7988L18.4735 24.8328L18.8305 24.8988C19.0675 24.9488 19.3095 24.9788 19.5485 25.0158C19.6695 25.0328 19.7865 25.0528 19.9095 25.0688L20.2795 25.1158C21.2655 25.2388 22.2505 25.3698 23.2356 25.4978L26.1896 25.8979L29.1417 26.3079L29.8837 26.4109C30.1231 26.4442 30.3627 26.4729 30.6027 26.4969C30.8427 26.5209 31.0834 26.5395 31.3247 26.5529L32.0628 26.5889L35.0398 26.7379C36.0319 26.7909 37.0249 26.8379 38.0169 26.8999C39.0089 26.9619 39.9969 27.0149 40.989 27.0759C44.9561 27.3279 48.9231 27.6049 52.8842 27.9869Z" fill="#CDE2A8"/>
<path d="M36.2436 11.7525C35.9356 11.7825 35.6276 11.8055 35.3186 11.8325L34.3946 11.9005C33.7776 11.9455 33.1615 11.9805 32.5435 12.0165C31.9255 12.0525 31.3115 12.0815 30.6955 12.1075L29.7705 12.1465C29.4655 12.1605 29.1435 12.1705 28.8324 12.1705C26.2924 12.1639 23.784 11.6064 21.4803 10.5364C20.9073 10.2684 20.3443 9.96142 19.8112 9.66541L18.1972 8.76539C17.1238 8.15805 16.0545 7.54303 14.9891 6.92035C12.8611 5.67032 10.749 4.39229 8.68899 3.02526C10.955 4.02529 13.1731 5.10731 15.3751 6.22034C16.4765 6.77701 17.5722 7.34369 18.6622 7.92037L20.2953 8.78939C20.8433 9.0894 21.3653 9.36741 21.9113 9.62041C24.0966 10.6325 26.4517 11.2277 28.8554 11.3755C29.4525 11.4085 30.0775 11.4195 30.6925 11.4445C31.3075 11.4695 31.9255 11.4925 32.5435 11.5205C33.1615 11.5485 33.7766 11.5805 34.3936 11.6205L35.3186 11.6805C35.6266 11.7045 35.9356 11.7245 36.2436 11.7525Z" fill="#CDE2A8"/>
<path d="M52.4233 19.6436C52.2583 19.3586 52.1043 19.0696 51.9553 18.7796C51.8063 18.4896 51.6603 18.1966 51.5183 17.9036C51.2343 17.3166 50.9653 16.7245 50.7053 16.1295C50.1839 14.9388 49.7002 13.7348 49.2542 12.5175L49.0882 12.0604C49.0332 11.9094 48.9792 11.7604 48.9222 11.6154C48.8122 11.3154 48.6922 11.0274 48.5702 10.7354C48.3252 10.1524 48.0552 9.57939 47.7702 9.01237L47.5502 8.58836L47.3212 8.16235C47.1678 7.87568 47.0175 7.58701 46.8702 7.29634C46.7232 7.00533 46.5782 6.71332 46.4392 6.41732C46.3002 6.12131 46.1622 5.8243 46.0392 5.51729C46.2612 5.7603 46.4722 6.01031 46.6812 6.26231C46.8902 6.51432 47.0932 6.76932 47.2942 7.02533C47.4952 7.28134 47.6942 7.54034 47.8872 7.80135C48.0802 8.06235 48.2792 8.33036 48.4612 8.60136C48.8297 9.15464 49.1608 9.73194 49.4522 10.3294C49.5992 10.6294 49.7322 10.9294 49.8612 11.2404C49.9242 11.3934 49.9832 11.5514 50.0412 11.7044L50.2122 12.1594C50.6563 13.3815 51.0686 14.6135 51.4493 15.8555C51.6373 16.4765 51.8173 17.1016 51.9823 17.7326C52.0643 18.0436 52.1443 18.3636 52.2233 18.6826C52.3023 19.0016 52.3643 19.3196 52.4233 19.6436Z" fill="#CDE2A8"/>
</g>
</svg>
