<svg width="23" height="23" viewBox="0 0 23 23" fill="none" xmlns="http://www.w3.org/2000/svg">
<path d="M8.25647 22.4877C9.42847 20.8437 9.64049 18.9047 10.1905 17.0567C10.4638 17.3175 10.7566 17.5568 11.0665 17.7727C11.7782 18.1828 12.5899 18.387 13.4109 18.3629C14.2319 18.3387 15.0301 18.087 15.7165 17.6357C16.5884 17.1157 17.3334 16.4078 17.897 15.5634C18.4606 14.719 18.8287 13.7594 18.9745 12.7547C19.4509 11.0507 19.2833 9.23098 18.5035 7.64274C17.9329 6.54186 17.0756 5.61549 16.0222 4.96143C14.9687 4.30737 13.7582 3.94988 12.5185 3.92673C11.2374 3.77512 9.9386 3.93017 8.72919 4.3791C7.51978 4.82802 6.43437 5.55795 5.56247 6.50873C4.7007 7.38982 4.10685 8.49752 3.84998 9.70292C3.59311 10.9083 3.68379 12.1619 4.11148 13.3178C4.25003 13.7665 4.48046 14.1815 4.78812 14.5363C5.09577 14.8911 5.47393 15.178 5.8985 15.3788C6.3825 15.6068 6.55448 15.5127 6.71448 15.0007C6.83075 14.7093 6.87226 14.3934 6.83524 14.0818C6.79821 13.7702 6.68381 13.4728 6.50247 13.2167C6.13168 12.5721 5.93655 11.8414 5.93655 11.0978C5.93655 10.3541 6.13168 9.62339 6.50247 8.97873C7.00668 7.91977 7.8362 7.04972 8.86993 6.49561C9.90366 5.94151 11.0875 5.73238 12.2485 5.89875C12.8196 5.96861 13.3801 6.10798 13.9175 6.31376C14.5749 6.5639 15.1487 6.99404 15.5731 7.555C15.9976 8.11595 16.2555 8.78506 16.3175 9.48575C16.5513 11.2004 16.2363 12.9451 15.4175 14.4697C15.2105 14.9284 14.9 15.333 14.5106 15.6517C14.1211 15.9704 13.6631 16.1946 13.1725 16.3067C12.8627 16.3915 12.5359 16.3917 12.2261 16.307C11.9163 16.2224 11.6349 16.0562 11.4112 15.8257C11.1876 15.5952 11.0299 15.3089 10.9547 14.9967C10.8794 14.6845 10.8894 14.3578 10.9835 14.0508C11.2545 12.9668 11.5835 11.8978 11.8685 10.8178C11.9304 10.5537 11.9579 10.2828 11.9505 10.0118C11.9793 9.70445 11.9141 9.39562 11.7636 9.12617C11.6131 8.85671 11.3843 8.63933 11.1075 8.50275C10.8234 8.3599 10.5035 8.30417 10.1878 8.3426C9.8722 8.38103 9.57498 8.51191 9.3335 8.71876C8.85713 9.07266 8.49926 9.56269 8.30716 10.1242C8.11506 10.6857 8.09773 11.2922 8.25748 11.8637C8.48285 13.0204 8.40745 14.2156 8.03848 15.3348C7.69548 16.7688 7.33848 18.1997 7.03848 19.6437C6.88848 20.3867 6.87248 21.1577 6.79648 21.9057C4.32929 20.8301 2.32606 18.9106 1.14606 16.4916C-0.0339496 14.0725 -0.313532 11.3123 0.357483 8.70576C0.910028 6.4832 2.11503 4.47684 3.81744 2.94489C5.51986 1.41295 7.64177 0.42551 9.9101 0.109655C12.1784 -0.206199 14.4894 0.163973 16.5455 1.17255C18.6017 2.18113 20.309 3.78196 21.4477 5.76902C22.5864 7.75607 23.1045 10.0384 22.9351 12.3224C22.7658 14.6063 21.9169 16.7873 20.4976 18.5847C19.0783 20.3821 17.1536 21.7137 14.9711 22.408C12.7887 23.1023 10.4484 23.1277 8.2515 22.4807L8.25647 22.4877Z" fill="black"/>
</svg>
