<svg width="26" height="22" viewBox="0 0 26 22" fill="none" xmlns="http://www.w3.org/2000/svg">
<path d="M25.631 2.60493C25.364 2.96993 25.119 3.35293 24.825 3.69593C24.3793 4.21463 23.8726 4.67764 23.316 5.07493C23.236 5.13193 23.161 5.19693 23.073 5.26693C23.2353 8.54475 22.3288 11.7866 20.49 14.5049C18.973 16.7259 16.8855 18.497 14.447 19.6319C12.1562 20.7189 9.62444 21.1991 7.09467 21.0265C4.56489 20.8538 2.12192 20.0341 0 18.6459C1.36151 18.8352 2.74788 18.726 4.06299 18.3259C5.38454 17.9289 6.61451 17.2743 7.68201 16.3999C6.59704 16.3897 5.54274 16.0384 4.6684 15.3959C3.79405 14.7535 3.14393 13.8523 2.81 12.8199C3.5417 12.909 4.28386 12.8495 4.992 12.6449C3.84432 12.3513 2.82721 11.6835 2.10138 10.7473C1.37555 9.81101 0.98238 8.65959 0.984009 7.47492C1.34301 7.60992 1.69 7.76193 2.052 7.87493C2.41668 7.99916 2.80527 8.03682 3.18701 7.98493C0.977012 6.02393 0.330969 3.75292 1.68097 1.00292C1.79297 1.11992 1.88901 1.21092 1.97601 1.31092C3.85374 3.52894 6.3396 5.14887 9.12701 5.97093C10.0954 6.25484 11.0908 6.4365 12.097 6.51293C12.249 6.52493 12.402 6.51293 12.597 6.51293C12.577 6.25293 12.564 6.02993 12.543 5.80693C12.4616 4.94058 12.5804 4.06714 12.89 3.25393C13.1047 2.66283 13.4369 2.12133 13.8666 1.6621C14.2962 1.20288 14.8145 0.835435 15.39 0.581935C16.2492 0.138661 17.2144 -0.0577058 18.1785 0.0146739C19.1425 0.0870536 20.0677 0.425334 20.851 0.991923C21.0668 1.13001 21.2652 1.29352 21.442 1.47892C21.5135 1.56784 21.6115 1.63167 21.7217 1.66116C21.8319 1.69065 21.9486 1.68426 22.055 1.64292C22.597 1.47492 23.141 1.30992 23.667 1.10192C24.101 0.930924 24.511 0.701928 24.931 0.496928C24.931 1.18993 24.231 2.13193 22.819 3.30593C23.069 3.28593 23.262 3.28493 23.451 3.25393C24.0965 3.14862 24.7262 2.96213 25.325 2.69892C25.4288 2.66289 25.5355 2.63579 25.644 2.61793L25.631 2.60493Z" fill="black"/>
</svg>
