<?xml version="1.0" standalone="no"?>
<!DOCTYPE svg PUBLIC "-//W3C//DTD SVG 1.1//EN" "http://www.w3.org/Graphics/SVG/1.1/DTD/svg11.dtd" >
<svg xmlns="http://www.w3.org/2000/svg" xmlns:xlink="http://www.w3.org/1999/xlink" version="1.1">
<metadata>
Created by FontForge 20201107 at Sat Nov  1 12:53:15 2025
 By 
Copyright (c) 2012-2023 by Rui Abreu, Portugal. All rights reserved.
</metadata>
<defs>
<font id="AzoSansRegular" horiz-adv-x="1212" >
  <font-face 
    font-family="Azo Sans"
    font-weight="300"
    font-stretch="normal"
    units-per-em="2048"
    panose-1="2 11 4 3 3 5 3 2 2 4"
    ascent="1581"
    descent="-467"
    x-height="1006"
    cap-height="1483"
    bbox="-96 -469 2015 1585"
    underline-thickness="0"
    underline-position="0"
    unicode-range="U+0020-00A0"
  />
<missing-glyph horiz-adv-x="913" 
d="M0 1483h915v-1483h-915v1483zM106 106h703v1270h-703v-1270z" />
    <glyph glyph-name=".notdef" horiz-adv-x="913" 
d="M0 1483h915v-1483h-915v1483zM106 106h703v1270h-703v-1270z" />
    <glyph glyph-name=".notdef" horiz-adv-x="913" 
d="M0 1483h915v-1483h-915v1483zM106 106h703v1270h-703v-1270z" />
    <glyph glyph-name=".null" horiz-adv-x="0" 
 />
    <glyph glyph-name="nonmarkingreturn" horiz-adv-x="682" 
 />
    <glyph glyph-name="space" unicode=" " horiz-adv-x="501" 
 />
    <glyph glyph-name="comma" unicode="," horiz-adv-x="612" 
d="M252 -301l154 557h-123l-119 -557h88z" />
    <glyph glyph-name="period" unicode="." horiz-adv-x="612" 
d="M406 80q0 40 -30 69t-71 29q-40 0 -69 -29t-29 -69q0 -41 29 -70.5t69 -29.5q41 0 71 29.5t30 70.5z" />
    <glyph glyph-name="zero" unicode="0" horiz-adv-x="1239" 
d="M1102 725v33q0 131 -15.5 240.5t-51.5 204.5t-90.5 160.5t-137 102.5t-186.5 37q-131 0 -226 -56t-150 -159t-80.5 -234t-25.5 -296v-33q0 -165 25.5 -296t80.5 -234t150 -159t226 -56q104 0 186.5 37t137 102.5t90.5 160.5t51.5 204.5t15.5 240.5zM262 729v25
q0 113 10.5 205.5t36.5 174t66.5 136.5t102.5 87t143 32t143 -32t102 -87t65 -136.5t35.5 -174t10.5 -205.5v-25q0 -113 -10.5 -205.5t-35.5 -174t-65 -136.5t-102 -87t-143 -32t-143 32t-102.5 87t-66.5 136.5t-36.5 174t-10.5 205.5z" />
    <glyph glyph-name="one" unicode="1" horiz-adv-x="1026" 
d="M649 0v1507l-481 -297v-135l360 225v-1300h121z" />
    <glyph glyph-name="two" unicode="2" horiz-adv-x="1136" 
d="M1014 111h-688l-2 4l342 415q73 89 115.5 147t85 130.5t61 140.5t18.5 142q0 128 -60 223t-158 142.5t-220 47.5q-109 0 -206.5 -41t-158.5 -110v-131q67 80 158.5 124t196.5 44q139 0 232 -80t93 -226q0 -50 -12.5 -99.5t-31.5 -91.5t-56 -97t-69.5 -97.5t-88.5 -111.5
l-467 -582v-4h916v111z" />
    <glyph glyph-name="three" unicode="3" horiz-adv-x="1110" 
d="M983 399q0 135 -72 232.5t-198 136.5v4q108 42 169.5 130.5t61.5 207.5q0 173 -124 283t-320 110q-192 0 -344 -108v-125q66 54 155.5 86.5t180.5 32.5q145 0 237 -78t92 -211q0 -128 -88.5 -207.5t-240.5 -79.5h-142v-106h144q175 0 270.5 -83t95.5 -223t-98 -223.5
t-252 -83.5q-96 0 -192.5 34.5t-172.5 100.5v-133q68 -54 164.5 -85t204.5 -31q208 0 338.5 117.5t130.5 301.5z" />
    <glyph glyph-name="four" unicode="4" horiz-adv-x="1286" 
d="M922 0v408h315v112h-315v963h-125l-750 -1071v-4h752v-408h123zM799 520h-545l-2 4l283 398q141 199 262 383h4q-2 -125 -2 -406v-379z" />
    <glyph glyph-name="five" unicode="5" horiz-adv-x="1097" 
d="M940 1483h-707l-51 -690q66 10 166 10q153 0 267 -40t180.5 -123.5t66.5 -201.5q0 -156 -103.5 -250t-269.5 -94q-197 0 -366 133v-137q159 -110 371 -110q217 0 354 127t137 331q0 220 -161.5 345.5t-442.5 125.5q-53 0 -76 -2l35 463h600v113z" />
    <glyph glyph-name="six" unicode="6" horiz-adv-x="1191" 
d="M1071 430q0 188 -128 313t-318 125q-95 0 -176 -35t-134 -100l-8 4q23 44 53 94l385 652h-135l-336 -574q-88 -151 -125.5 -252.5t-37.5 -205.5q0 -202 135 -336.5t346 -134.5q206 0 342.5 128.5t136.5 321.5zM238 434q0 139 105.5 232.5t256.5 93.5t249.5 -95.5
t98.5 -238.5q0 -149 -104 -241.5t-250 -92.5q-157 0 -256.5 103.5t-99.5 238.5z" />
    <glyph glyph-name="seven" unicode="7" horiz-adv-x="1124" 
d="M393 0l633 1479l-2 4h-928v-113h758l-590 -1370h129z" />
    <glyph glyph-name="eight" unicode="8" horiz-adv-x="1208" 
d="M1077 399q0 133 -71 232t-201 141v4q116 39 177.5 127t61.5 211q0 171 -121.5 280t-318.5 109q-196 0 -318 -109.5t-122 -279.5q0 -122 62 -210t177 -128v-4q-128 -42 -199 -141t-71 -232q0 -184 129 -301.5t342 -117.5t343 117.5t130 301.5zM285 1108q0 126 91 204.5
t228 78.5q138 0 229 -78.5t91 -204.5q0 -127 -92 -206t-228 -79q-135 0 -227 79.5t-92 205.5zM256 403q0 140 99.5 228t248.5 88q150 0 250 -88t100 -228q0 -139 -99 -225t-251 -86q-150 0 -249 86t-99 225z" />
    <glyph glyph-name="nine" unicode="9" horiz-adv-x="1165" 
d="M371 0h137l377 592q84 132 126 235.5t42 214.5q0 201 -135 331t-338 130q-205 0 -343.5 -129t-138.5 -323q0 -186 129.5 -310.5t315.5 -124.5q171 0 280 105l4 -4l-39 -64zM221 1057q0 147 105.5 239.5t251.5 92.5q100 0 181 -48t124 -124t43 -162q0 -134 -100.5 -232
t-254.5 -98q-153 0 -251.5 95.5t-98.5 236.5z" />
    <glyph glyph-name="A" unicode="A" horiz-adv-x="1398" 
d="M150 0l182 444h727l184 -444h135l-614 1483h-129l-615 -1483h130zM504 862q51 121 192 486h4q65 -167 191 -484l123 -309h-637z" />
    <glyph glyph-name="B" unicode="B" horiz-adv-x="1294" 
d="M641 0q132 0 217.5 20.5t157.5 71.5q75 54 117.5 135t42.5 181q0 137 -78.5 233.5t-214.5 128.5v4q108 38 169.5 125.5t61.5 202.5q0 97 -42.5 175t-113.5 126q-65 44 -145 62t-197 18h-432v-1483h457zM309 113v594h389q156 0 253.5 -79t97.5 -216q0 -152 -117 -234
q-53 -36 -120.5 -50.5t-172.5 -14.5h-330zM309 1370h301q92 0 153 -12t109 -45q115 -76 115 -223q0 -124 -88 -199.5t-227 -75.5h-363v555z" />
    <glyph glyph-name="C" unicode="C" horiz-adv-x="1392" 
d="M1290 236q-190 -140 -424 -140q-188 0 -336 85t-228.5 232.5t-80.5 329.5q0 181 81 327.5t227.5 231t330.5 84.5q229 0 416 -133v138q-182 112 -418 112q-164 0 -306.5 -59t-242 -161t-156.5 -243.5t-57 -300.5q0 -160 57.5 -300.5t158 -241.5t243 -159t305.5 -58
q247 0 430 120v136z" />
    <glyph glyph-name="D" unicode="D" horiz-adv-x="1509" 
d="M535 0q197 0 348 39.5t272 132.5q126 95 195 243.5t69 325.5t-69 326t-195 244q-121 93 -272 132.5t-348 39.5h-351v-1483h351zM309 115v1253h219q175 0 303 -30t232 -105q109 -80 170 -209t61 -283t-61 -282.5t-170 -208.5q-104 -75 -232 -105t-303 -30h-219z" />
    <glyph glyph-name="E" unicode="E" horiz-adv-x="1130" 
d="M1024 0v115h-715v600h617v112h-617v541h697v115h-822v-1483h840z" />
    <glyph glyph-name="F" unicode="F" horiz-adv-x="1128" 
d="M309 0v686h637v113h-637v569h717v115h-842v-1483h125z" />
    <glyph glyph-name="G" unicode="G" horiz-adv-x="1505" 
d="M1243 598v-408q-162 -96 -366 -96q-147 0 -271 51t-207 138.5t-129.5 205.5t-46.5 252q0 181 80 327t230.5 232t343.5 86q248 0 448 -141v137q-197 121 -446 121q-172 0 -319 -59t-248 -161.5t-157.5 -243t-56.5 -300.5t57 -300.5t157.5 -241.5t244.5 -159t311 -58
q139 0 270.5 39t229.5 108v584h-502v-113h377z" />
    <glyph glyph-name="H" unicode="H" horiz-adv-x="1515" 
d="M309 0v713h897v-713h125v1483h-125v-656h-897v656h-125v-1483h125z" />
    <glyph glyph-name="I" unicode="I" horiz-adv-x="493" 
d="M309 0v1483h-125v-1483h125z" />
    <glyph glyph-name="J" unicode="J" horiz-adv-x="811" 
d="M68 20q88 -40 200 -40q188 0 285 120q82 97 82 308v1075h-125v-1077q0 -147 -51 -222q-62 -88 -195 -88q-99 0 -196 43v-119z" />
    <glyph glyph-name="K" unicode="K" horiz-adv-x="1257" 
d="M309 0v752l4 2l768 -754h162l-788 772l747 711h-158l-731 -701l-4 2v699h-125v-1483h125z" />
    <glyph glyph-name="L" unicode="L" horiz-adv-x="1122" 
d="M1044 0v115h-735v1368h-125v-1483h860z" />
    <glyph glyph-name="M" unicode="M" horiz-adv-x="1759" 
d="M307 0v922q0 134 -4 352h4q177 -263 221 -326l351 -502l350 502q44 63 221 326h4q-4 -218 -4 -352v-922h127v1483h-121l-575 -828l-576 828h-121v-1483h123z" />
    <glyph glyph-name="N" unicode="N" horiz-adv-x="1566" 
d="M307 0v836q0 166 -4 444h4q76 -105 281 -379l676 -901h118v1483h-120v-821q0 -312 2 -459h-4q-138 190 -279 379l-678 901h-119v-1483h123z" />
    <glyph glyph-name="O" unicode="O" horiz-adv-x="1687" 
d="M1589 741q0 158 -57 298.5t-155.5 242.5t-237 161.5t-295.5 59.5q-209 0 -381 -101t-269.5 -276t-97.5 -385t97.5 -384.5t269.5 -275.5t381 -101t380.5 101t268 275.5t96.5 384.5zM221 741q0 177 80 324.5t223.5 234t319.5 86.5q175 0 318 -86.5t222.5 -234t79.5 -324.5
t-79.5 -324.5t-222.5 -234t-318 -86.5q-176 0 -319.5 86.5t-223.5 234t-80 324.5z" />
    <glyph glyph-name="P" unicode="P" horiz-adv-x="1263" 
d="M309 0v606h324q129 0 218.5 20.5t162.5 73.5q80 55 126 144.5t46 199.5t-46 201t-126 146q-73 52 -162.5 72t-218.5 20h-449v-1483h125zM309 1368h320q107 0 176.5 -13.5t126.5 -51.5q59 -40 94 -109t35 -150q0 -82 -34.5 -149.5t-94.5 -108.5q-58 -38 -128 -52.5
t-175 -14.5h-320v649z" />
    <glyph glyph-name="Q" unicode="Q" horiz-adv-x="1687" 
d="M827 -18q273 -217 559 -324l130 76q-292 97 -523 264v2q263 50 429.5 255.5t166.5 485.5q0 158 -57 298.5t-155.5 242.5t-237 161.5t-295.5 59.5q-209 0 -381 -100.5t-269.5 -275.5t-97.5 -386q0 -207 95 -379.5t262.5 -274t373.5 -105.5zM844 1386q175 0 318 -86.5
t222.5 -234t79.5 -324.5q0 -133 -47 -251.5t-128.5 -204.5t-197 -136.5t-247.5 -50.5q-177 0 -320 85.5t-223 233t-80 324.5t80 324.5t223.5 234t319.5 86.5z" />
    <glyph glyph-name="R" unicode="R" horiz-adv-x="1308" 
d="M309 0v655h334l469 -655h150l-478 668q173 22 276 131t103 270q0 105 -43.5 190.5t-118.5 137.5q-69 49 -153 67.5t-207 18.5h-457v-1483h125zM309 1368h330q100 0 162.5 -12.5t116.5 -48.5q57 -37 88.5 -100.5t31.5 -141.5q0 -75 -31.5 -137.5t-88.5 -100.5
q-53 -36 -115.5 -48.5t-153.5 -12.5h-340v602z" />
    <glyph glyph-name="S" unicode="S" horiz-adv-x="1132" 
d="M123 111q92 -64 211.5 -97.5t234.5 -33.5q216 0 345.5 110t129.5 303q0 113 -45.5 192t-138.5 134q-70 40 -239 89.5t-215 70.5q-87 39 -127.5 95.5t-40.5 143.5q0 128 89.5 198t243.5 70q103 0 211 -31t195 -93v135q-82 51 -190.5 78.5t-213.5 27.5q-209 0 -333.5 -105
t-124.5 -288q0 -231 209 -332q65 -31 229.5 -78.5t218.5 -76.5q78 -42 113 -99.5t35 -138.5q0 -138 -95.5 -213.5t-255.5 -75.5q-113 0 -233.5 39t-212.5 115v-139z" />
    <glyph glyph-name="T" unicode="T" horiz-adv-x="1265" 
d="M696 0v1368h514v115h-1153v-115h514v-1368h125z" />
    <glyph glyph-name="U" unicode="U" horiz-adv-x="1480" 
d="M166 631q0 -291 119 -445q75 -98 192 -152t264 -54q146 0 264.5 54t192.5 152q117 157 117 445v852h-123v-846q0 -245 -90 -371q-58 -80 -150.5 -125t-208.5 -45q-117 0 -209 45t-151 125q-90 126 -90 371v846h-127v-852z" />
    <glyph glyph-name="V" unicode="V" horiz-adv-x="1333" 
d="M731 0l576 1483h-129l-344 -887q-93 -239 -164 -432h-4q-25 70 -162 430l-342 889h-135l577 -1483h127z" />
    <glyph glyph-name="W" unicode="W" horiz-adv-x="2054" 
d="M641 0l266 850q41 133 119 391h4q52 -182 117 -389l268 -852h133l467 1483h-127l-272 -867q-98 -315 -131 -432h-4q-71 238 -131 430l-273 869h-94l-272 -867q-80 -255 -131 -432h-5q-92 305 -131 432l-272 867h-133l467 -1483h135z" />
    <glyph glyph-name="X" unicode="X" horiz-adv-x="1327" 
d="M172 0l305 426q90 125 182 258h5q71 -104 182 -260l303 -424h149l-553 770l510 713h-141l-264 -371q-32 -44 -180 -258h-4q-26 41 -179 258l-266 371h-147l510 -713l-553 -770h141z" />
    <glyph glyph-name="Y" unicode="Y" horiz-adv-x="1318" 
d="M723 0v670l571 813h-141l-279 -396q-82 -115 -210 -311h-5q-102 156 -210 309l-279 398h-147l575 -813v-670h125z" />
    <glyph glyph-name="Z" unicode="Z" horiz-adv-x="1265" 
d="M1182 115h-903l-3 2l920 1362l-2 4h-1088v-115h867l2 -2l-920 -1362l2 -4h1125v115z" />
    <glyph glyph-name="a" unicode="a" horiz-adv-x="1081" 
d="M1073 109q-43 -17 -74 -17q-114 0 -114 137v463q0 157 -103 245.5t-297 88.5q-182 0 -309 -78v-112q128 79 293 79q144 0 220.5 -60t76.5 -181v-131q-158 22 -262 22q-186 0 -295 -74t-109 -225q0 -134 96 -209t244 -75q193 0 342 127h4q20 -59 68.5 -91t116.5 -32
q41 0 102 18v105zM219 274q0 54 23.5 93.5t66 61t93 31t112.5 9.5q121 0 252 -23v-241q-59 -55 -140.5 -87t-166.5 -32q-102 0 -171 47t-69 141z" />
    <glyph glyph-name="b" unicode="b" horiz-adv-x="1208" 
d="M274 61q155 -81 308 -81q231 0 378.5 151.5t147.5 384.5q0 225 -137.5 367.5t-341.5 142.5q-196 0 -326 -127l-4 2v664h-121v-1526zM299 786q123 129 305 129q171 0 277 -113.5t106 -291.5q0 -183 -111.5 -302.5t-291.5 -119.5q-156 0 -285 80v618z" />
    <glyph glyph-name="c" unicode="c" horiz-adv-x="1044" 
d="M928 186q-120 -96 -291 -96q-181 0 -297.5 115.5t-116.5 296.5q0 180 116.5 296.5t299.5 116.5q150 0 281 -90v125q-124 76 -287 76q-231 0 -381 -149t-150 -375q0 -148 67 -267t187.5 -187t272.5 -68q174 0 299 81v125z" />
    <glyph glyph-name="d" unicode="d" 
d="M1032 0v1565h-119v-613l-4 -2q-145 76 -282 76q-153 0 -273.5 -72.5t-185 -195t-64.5 -271.5q0 -226 139.5 -366.5t342.5 -140.5q97 0 181.5 33.5t143.5 90.5l2 -2v-102h119zM225 492q0 183 111.5 304.5t296.5 121.5q150 0 280 -84v-615q-125 -131 -305 -131
q-171 0 -277 113.5t-106 290.5z" />
    <glyph glyph-name="e" unicode="e" horiz-adv-x="1148" 
d="M987 203q-152 -113 -342 -113q-183 0 -297 103.5t-125 277.5h817q4 40 4 84q0 219 -128.5 345t-319.5 126q-209 0 -351.5 -147t-142.5 -379q0 -233 150 -376.5t387 -143.5q93 0 186 25.5t162 70.5v127zM594 915q46 0 89.5 -10t88.5 -35.5t78.5 -63t55 -98.5t22.5 -137
h-703q18 162 124 253t245 91z" />
    <glyph glyph-name="f" unicode="f" horiz-adv-x="671" 
d="M344 0v895h283v111h-283v268q0 201 168 201q62 0 125 -25v109q-57 26 -141 26q-132 0 -202.5 -79t-70.5 -226v-274h-174v-111h174v-895h121z" />
    <glyph glyph-name="g" unicode="g" horiz-adv-x="1204" 
d="M217 -383q143 -86 328 -86q226 0 353.5 121.5t127.5 329.5v983l-96 -23q-147 84 -309 84q-153 0 -272 -71.5t-182 -191t-63 -265.5q0 -221 137.5 -362.5t344.5 -141.5q185 0 317 119l2 -2v-127q0 -161 -97 -252.5t-267 -91.5q-184 0 -324 100v-123zM625 918
q152 0 280 -82v-611q-56 -58 -135 -91.5t-164 -33.5q-169 0 -275 114t-106 290q0 116 48 209.5t140 149t212 55.5z" />
    <glyph glyph-name="h" unicode="h" 
d="M299 0v750q75 75 167.5 119t190.5 44q124 0 195 -71q66 -66 66 -232v-610h120v627q0 106 -21 177t-71 122q-97 100 -260 100q-211 0 -383 -160l-4 2v697h-121v-1565h121z" />
    <glyph glyph-name="i" unicode="i" horiz-adv-x="477" 
d="M332 1358q0 39 -27.5 66.5t-66.5 27.5q-38 0 -65.5 -28t-27.5 -66t27.5 -65t65.5 -27q40 0 67 27t27 65zM299 0v1006h-121v-1006h121z" />
    <glyph glyph-name="j" unicode="j" horiz-adv-x="481" 
d="M182 -154q0 -101 -38 -153.5t-126 -52.5q-48 0 -114 20v-109q50 -20 125 -20q140 0 206 79t66 236v1160h-119v-1160zM336 1358q0 39 -27.5 66.5t-66.5 27.5q-40 0 -67.5 -28t-27.5 -66t27.5 -65t67.5 -27t67 27t27 65z" />
    <glyph glyph-name="k" unicode="k" horiz-adv-x="1034" 
d="M299 0v514l4 2l543 -516h158l-555 524l534 482h-156l-524 -478l-4 2v1035h-121v-1565h121z" />
    <glyph glyph-name="l" unicode="l" horiz-adv-x="477" 
d="M299 0v1565h-121v-1565h121z" />
    <glyph glyph-name="m" unicode="m" horiz-adv-x="1914" 
d="M299 0v752q165 161 350 161q119 0 189 -73q34 -38 47.5 -91t13.5 -143v-606h119v627q0 69 -8 116q75 76 167 123t189 47q118 0 188 -73q64 -70 64 -236v-604h119v627q0 106 -20.5 175.5t-67.5 121.5q-96 102 -260 102q-206 0 -406 -180q-39 87 -122 133.5t-189 46.5
q-203 0 -369 -158l-4 2v136h-121v-1006h121z" />
    <glyph glyph-name="n" unicode="n" 
d="M299 0v750q75 75 167.5 119t190.5 44q124 0 195 -71q66 -66 66 -232v-610h120v627q0 106 -21 177t-71 122q-97 100 -260 100q-211 0 -383 -160l-4 2v138h-121v-1006h121z" />
    <glyph glyph-name="o" unicode="o" horiz-adv-x="1249" 
d="M1147 504q0 221 -149 371.5t-373 150.5t-373.5 -150.5t-149.5 -371.5q0 -146 67.5 -266t187.5 -189t268 -69t268 69t187 189t67 266zM223 504q0 175 114.5 293t287.5 118t287 -118t114 -293q0 -177 -114 -295.5t-287 -118.5t-287.5 118.5t-114.5 295.5z" />
    <glyph glyph-name="p" unicode="p" 
d="M299 -451v521h4q136 -90 295 -90q224 0 368 150.5t144 381.5q0 226 -139.5 370t-347.5 144q-186 0 -322 -119l-4 2v97h-119v-1457h121zM299 793q119 122 303 122q172 0 279.5 -114.5t107.5 -294.5q0 -184 -109.5 -301t-289.5 -117q-168 0 -291 98v607z" />
    <glyph glyph-name="q" unicode="q" 
d="M1032 -451v1414l-98 -21q-158 84 -305 84q-153 0 -273.5 -70t-186 -191t-65.5 -271q0 -226 139 -370t347 -144q185 0 319 118l4 -2v-547h119zM913 213q-55 -58 -134.5 -91.5t-168.5 -33.5q-169 0 -277 116t-108 294q0 182 111 301t293 119q156 0 284 -87v-618z" />
    <glyph glyph-name="r" unicode="r" horiz-adv-x="718" 
d="M299 0v702q129 197 328 197q34 0 61 -6v119q-27 6 -59 6q-95 0 -180 -48.5t-146 -129.5l-4 2v164h-121v-1006h121z" />
    <glyph glyph-name="s" unicode="s" horiz-adv-x="1003" 
d="M905 279q0 174 -172 241q-57 22 -187.5 45.5t-164.5 32.5q-75 21 -111.5 55.5t-36.5 91.5q0 84 71 127t192 43q195 0 358 -94v121q-70 39 -165 61.5t-191 22.5q-172 0 -278.5 -77t-106.5 -212q0 -166 172 -233q60 -23 191 -45.5t169 -34.5q72 -22 105.5 -58.5t33.5 -95.5
q0 -89 -74.5 -134.5t-205.5 -45.5q-102 0 -203.5 28.5t-181.5 82.5v-127q74 -45 174.5 -69.5t206.5 -24.5q179 0 292 78.5t113 220.5z" />
    <glyph glyph-name="t" unicode="t" horiz-adv-x="763" 
d="M250 897v-594q0 -155 71 -239t211 -84q93 0 162 32v109q-67 -31 -141 -31q-182 0 -182 221v586h323v109h-323v311l-121 -29v-282h-209v-109h209z" />
    <glyph glyph-name="u" unicode="u" horiz-adv-x="1210" 
d="M1032 0v1006h-119v-764q-169 -152 -352 -152q-128 0 -199 74q-36 36 -51.5 92t-15.5 145v605h-121v-625q0 -108 21 -177.5t71 -121.5q96 -102 266 -102q200 0 377 147h4v-127h119z" />
    <glyph glyph-name="v" unicode="v" horiz-adv-x="1103" 
d="M610 0l430 1006h-125l-210 -496q-92 -216 -150 -365h-4q-66 165 -148 359l-210 502h-132l431 -1006h118z" />
    <glyph glyph-name="w" unicode="w" horiz-adv-x="1669" 
d="M543 0l178 494q98 274 113 321h4q65 -197 110 -321l180 -494h117l357 1006h-125l-174 -500q-57 -163 -115 -346h-4q-21 59 -123 346l-182 500h-82l-183 -500q-82 -226 -122 -346h-5q-68 211 -116 346l-174 500h-127l354 -1006h119z" />
    <glyph glyph-name="x" unicode="x" horiz-adv-x="1005" 
d="M150 0l163 209q24 32 90 116.5t97 125.5h4q122 -165 182 -240l168 -211h139l-413 526l378 480h-137l-133 -172q-29 -38 -91.5 -118.5t-90.5 -117.5h-4q-24 33 -180 236l-136 172h-141l381 -484l-414 -522h138z" />
    <glyph glyph-name="y" unicode="y" horiz-adv-x="1105" 
d="M1040 1006h-127l-200 -424q-81 -169 -158 -340h-4q-30 70 -156 338l-200 426h-134l428 -897l-274 -560h131z" />
    <glyph glyph-name="z" unicode="z" horiz-adv-x="964" 
d="M899 109h-631l-2 4l645 888l-2 5h-819v-109h604l2 -4l-645 -889l2 -4h846v109z" />
    <glyph glyph-name="Non-breakingspace" unicode="&#xa0;" horiz-adv-x="501" 
 />
    </font>
</defs>
</svg>
